PathFileType	4	(X/Y/Z)	RBDS026\RBDS026runT45.trc
DataRate	CameraRate	NumFrames	NumMarkers	Units	OrigDataRate	OrigDataStartFrame	OrigNumFrames
150.000000	150.000000	5	33	mm	150.000000	0	4500
Frame#	Time	L.ASIS			L.Heel.Bottom			L.Heel.Lateral			L.Heel.Top			L.Iliac.Crest			L.MT1			L.MT5			L.PSIS			L.Shank.Bottom.Lateral			L.Shank.Bottom.Medial			L.Shank.Top.Lateral			L.Shank.Top.Medial			L.Thigh.Bottom.Lateral			L.Thigh.Bottom.Medial			L.Thigh.Top.Lateral			L.Thigh.Top.Medial			R.ASIS			R.ASY			R.Heel.Bottom			R.Heel.Lateral			R.Heel.Top			R.Iliac.Crest			R.MT1			R.MT5			R.PSIS			R.Shank.Bottom.Lateral			R.Shank.Bottom.Medial			R.Shank.Top.Lateral			R.Shank.Top.Medial			R.Thigh.Bottom.Lateral			R.Thigh.Bottom.Medial			R.Thigh.Top.Lateral			R.Thigh.Top.Medial			
		X1	Y1	Z1	X2	Y2	Z2	X3	Y3	Z3	X4	Y4	Z4	X5	Y5	Z5	X6	Y6	Z6	X7	Y7	Z7	X8	Y8	Z8	X9	Y9	Z9	X10	Y10	Z10	X11	Y11	Z11	X12	Y12	Z12	X13	Y13	Z13	X14	Y14	Z14	X15	Y15	Z15	X16	Y16	Z16	X17	Y17	Z17	X18	Y18	Z18	X19	Y19	Z19	X20	Y20	Z20	X21	Y21	Z21	X22	Y22	Z22	X23	Y23	Z23	X24	Y24	Z24	X25	Y25	Z25	X26	Y26	Z26	X27	Y27	Z27	X28	Y28	Z28	X29	Y29	Z29	X30	Y30	Z30	X31	Y31	Z31	X32	Y32	Z32	X33	Y33	Z33	

1	0	2025.751930451651	983.8288945320503	880.621057600209	1807.854923242785	35.06197583387728	1020.169059477814	1833.932847763477	51.69847608436329	966.9199024763024	1820.177002210343	81.59443512308688	1016.683701246947	1936.22351377227	1053.131228560519	848.4790523686587	2036.784598440796	46.1502832626764	1016.356400576583	1977.524303152841	37.5726364088816	915.8088536535307	1857.985910386967	1029.533797472419	979.939129223031	1923.994708398607	150.7441213543379	928.6607590136135	1882.396773223215	174.2070993940216	946.564000505203	1951.633900418099	218.4167499701831	894.0673501194819	1909.730189968374	245.8847101909871	910.8583962134074	2010.096643731883	589.3126351564775	840.7233203967596	1958.095940937879	576.7128605793924	890.1254596179376	1968.262537487648	689.4356274565259	822.3706979021302	1920.049279307626	677.4782419682628	870.8784360971385	2034.01866383387	950.0615437113325	1122.541508364363	1570.295042222668	518.5015945447794	1052.28156906725	1652.35382915791	686.8119848029745	1018.695324287335	1639.595255922238	657.4444370300207	1068.756258781203	1679.97324185324	650.7770173844257	1028.707742826871	1982.182742799081	1030.45436761459	1168.975983684025	1518.569840231139	507.2251847621494	994.2758736553902	1516.644092411676	551.1795771868096	1095.970999161331	1866.690020508327	1019.223730262119	1073.780923690355	1705.84511610859	571.3545875227796	1109.076558906104	1724.077469499946	612.7255818830708	1077.020204685571	1781.991742342732	561.0354264672808	1136.003459419687	1798.248278655122	600.6938637399334	1104.343194139553	2023.535060882052	548.3041621514599	1199.813100706603	1965.001650784524	537.0558369130205	1162.371893946917	1998.597447717269	655.7529710941682	1204.839983198305	1937.587407473741	642.1802293521663	1175.853958017327	
2	0.006666666666666667	2024.276508002354	982.7267657683997	879.5351149453894	1777.14111414789	35.7561687772595	1020.347740628942	1803.145817544087	52.45228904241799	967.0351036787171	1789.482661050714	82.40753328078672	1016.693383552926	1933.425305432057	1052.635949281769	847.9034018193775	2006.355339936861	46.21828137127918	1016.280242068987	1946.719756897917	37.60618771824848	916.0961516656264	1857.211764126468	1030.871975273997	978.3835879308317	1895.421299889115	150.9570403366006	928.9598001205746	1854.647756089827	175.5657390165458	946.9921608410058	1924.913620248306	217.8236442783349	894.452168325928	1883.894014697766	246.4962882252272	911.3467711676974	1996.771153485559	586.6441747910413	840.6191989438536	1943.030811719977	575.5464227213464	888.3610370113654	1958.945056491446	688.3447517204651	822.481544005606	1909.496706344687	677.9052930822855	870.125971951979	2032.566673052372	954.6308806165963	1123.409340963972	1587.003267985524	504.9227682527808	1055.952120386904	1656.688641666	678.6520075785522	1022.278466286944	1647.516057135452	648.4527289645955	1072.378649583745	1686.76524612784	644.5327246609838	1031.120691101459	1976.388303451815	1032.667777380527	1168.553054551917	1534.628838231529	490.8904915937036	1000.006429556097	1533.00693005367	534.6359471312488	1102.574862920457	1865.339698585734	1021.133839927328	1072.945241942776	1719.37610567223	564.6268233555521	1111.300218478106	1735.351872771239	607.3801169394936	1079.949967060374	1796.227822227267	557.2926723150201	1137.384148040098	1810.275806045638	598.2865002674374	1106.390760132408	2038.799545920643	555.3855617160098	1197.793338511039	1980.806835629188	541.2932888068937	1160.904531958732	2009.026611492369	661.0015619667429	1203.832393048808	1948.60778606525	644.641798089029	1175.466505659934	
3	0.01333333333333333	2022.981209684742	981.7638454837505	878.5892845225602	1746.432447210055	36.88272287925602	1020.486564172961	1772.43002316195	53.5748242981202	967.1160569034984	1758.863861425174	83.63265433552604	1016.658510203101	1931.065664141748	1052.326876524679	847.3226723618097	1975.856025122143	46.28819942590263	1016.206847484081	1915.900171883295	37.7445177323847	916.3575648989911	1856.578003748292	1032.3798567266	976.801798289371	1866.845483449467	151.5280226312146	929.2343990454705	1826.889631123354	177.248979408321	947.4221255213099	1898.148369468322	217.6045719676686	894.8163433926624	1858.009394084166	247.4454661850294	911.8379483777705	1983.2965144062	584.3362750611504	840.5747919046963	1927.934792425049	574.8258951678458	886.7676928537236	1949.560008260756	687.5632294349638	822.6522543896178	1898.949195584485	678.711228719662	869.4888804385813	2031.23121399343	959.2773998109859	1124.264349720103	1603.974809869948	491.1760801960739	1059.599894115071	1660.983058759998	669.8985310591501	1025.698579279512	1655.398845648097	639.0263508792309	1075.855088663277	1693.475376858647	637.8092598817518	1033.400256330001	1970.983702648898	1035.085090372669	1168.163319077629	1551.111360646943	474.2495961026697	1005.685444821167	1549.673824908222	517.8482279986605	1109.038050440847	1864.097397346209	1023.227411760395	1072.046770130927	1732.87407194036	557.7494245346107	1113.392748949658	1746.528382184559	601.8045376362013	1082.698222201569	1810.351487016334	553.5233874875239	1138.638348969796	1822.135418605481	595.76879752814	1108.256726542529	2053.850931191197	562.7225092925851	1195.705816202855	1996.373958797899	545.8438743925047	1159.383827160387	2019.334357594743	666.5071811137514	1202.788819792511	1959.510149968542	647.4189899573967	1175.051936804218	
4	0.02	2022.03757158686	981.0706548731924	877.9121560297231	1715.763581705702	38.85919003453589	1020.501820129498	1741.882988167363	55.38606600950596	967.089510824115	1728.431815450994	85.65204733358408	1016.490412075586	1929.574360027153	1052.37972039336	846.7428208188411	1945.238859757974	46.31631174086415	1016.175079599086	1885.068776557391	38.00263334328522	916.5815909719283	1856.223169588476	1034.215189665147	975.1719331757699	1838.292517073235	152.7683277730541	929.43359543983	1799.137945735297	179.5291859798707	947.8324056126172	1871.309378736535	218.0964157721616	895.1203633154954	1832.039738661006	249.0282683588669	912.3229252627106	1969.524864000311	582.7408799790238	840.6440533579847	1912.766039544932	574.9879144876161	885.4958052199853	1940.044684018573	687.3882970548345	822.9330593794633	1888.41562390784	680.262503344331	869.0687214785926	2030.138061416558	964.0929957293055	1125.087538315085	1621.442139326837	477.0984578442494	1063.202239202115	1665.194472435387	660.0113859644869	1028.820545327288	1663.207887374621	628.7648984533598	1079.059487227695	1700.023964327158	630.1666680669222	1035.437437923544	1966.325529398312	1037.911095124753	1167.834950563014	1568.393613970738	457.0167199048948	1011.266369873489	1566.912827364322	500.590242408649	1115.23397721947	1863.074498821383	1025.682852586287	1071.032866029979	1746.301932329978	550.5877990624392	1115.239303004211	1757.511915299159	595.7854749075913	1085.10133482343	1824.252194529966	549.7091935572436	1139.650387155132	1833.667340925728	593.0402296477141	1109.773781564679	2068.510023628077	570.567545045318	1193.48698219619	2011.49864620358	551.0104616274491	1157.766741071124	2029.428905480141	672.5234340437789	1201.681772606073	1970.203768549258	650.8193049523104	1174.594126648465	
5	0.02666666666666667	2021.578698109168	980.7612967058674	877.5995166053191	1685.219950521406	42.03667716802307	1020.312508605109	1711.639381012351	58.14765134222576	966.8844393644215	1698.340910968764	88.78000870223724	1016.106907743467	1929.302888140208	1052.946026868696	846.1724640724506	1914.505785537353	46.25826394635905	1016.222097725838	1854.270846355808	38.37620086394014	916.7572647712254	1856.262552297625	1036.504542499307	973.4863327748968	1809.83943032795	154.9316247388573	929.5063718177453	1771.461923928239	182.6249071537466	948.1981603890501	1844.426402381599	219.5775523276767	895.3253732387684	1806.004901075039	251.4864077845643	912.7907121138826	1955.366704572225	582.1553526239978	840.8640170429943	1897.517628471253	576.3930409856018	884.6540182568334	1930.373313131143	688.0671081171836	823.3562469245753	1877.928370506896	682.8578180212681	868.9366004291791	2029.395536225334	969.1519871310508	1125.859510801849	1639.585947595427	462.5768801905836	1066.728098848716	1669.322325358588	648.564318954398	1031.545509555042	1670.937106709125	617.3494365082474	1081.894121110932	1706.371702600117	621.2517782851328	1037.152979857819	1962.688728275654	1041.307904687588	1167.591225771252	1586.775147949773	439.0018782175804	1016.694439138932	1584.935295146767	482.7076104211758	1121.04981865821	1862.368534511681	1028.64490916098	1069.876947222781	1759.62968123313	543.0341240260483	1116.752481264594	1768.232381648183	589.1481831110395	1087.033451270665	1837.835485828848	545.8267649730001	1140.331690942095	1844.743598219137	590.0081491702144	1110.813533098012	2082.621770400151	579.108859272393	1191.093703449387	2026.004191778214	557.0225929662961	1156.031596673491	2039.234415181028	679.2436909535417	1200.495856364773	1980.610483108905	655.0822820493963	1174.088797737413	
